<?xml version="1.0" standalone="no"?>
<!DOCTYPE svg PUBLIC "-//W3C//DTD SVG 20010904//EN"
 "http://www.w3.org/TR/2001/REC-SVG-20010904/DTD/svg10.dtd">
<svg version="1.0" xmlns="http://www.w3.org/2000/svg"
 width="362.000000pt" height="362.000000pt" viewBox="0 0 362.000000 362.000000"
 preserveAspectRatio="xMidYMid meet">
<metadata>
Created by potrace 1.14, written by Peter Selinger 2001-2017
</metadata>
<g transform="translate(0.000000,362.000000) scale(0.100000,-0.100000)"
fill="#000000" stroke="none">
<path d="M1688 3285 c-1 -1 -30 -5 -63 -8 -143 -13 -350 -74 -497 -148 -419
-208 -711 -592 -809 -1059 -23 -113 -34 -388 -19 -472 5 -24 11 -60 14 -80 33
-213 138 -457 275 -638 298 -395 735 -613 1226 -611 165 0 298 23 471 79 405
133 747 454 911 857 43 103 86 258 100 355 10 68 10 371 1 425 -4 22 -10 58
-13 80 -10 57 -51 195 -85 283 -118 307 -391 607 -700 768 -159 83 -301 128
-500 159 -47 7 -306 16 -312 10z m302 -170 c488 -70 917 -419 1079 -878 55
-157 70 -235 78 -412 6 -148 -10 -284 -52 -430 -29 -101 -117 -289 -172 -368
-266 -380 -669 -595 -1118 -597 -673 -3 -1242 489 -1340 1160 -13 89 -14 317
-1 380 3 14 7 36 10 50 93 507 474 923 970 1059 87 24 112 29 191 37 33 4 62
8 63 10 6 5 243 -4 292 -11z"/>
<path d="M1889 2833 c-119 -34 -194 -77 -272 -155 -66 -67 -69 -69 -103 -59
-85 24 -238 -7 -354 -71 -87 -48 -185 -132 -175 -149 4 -5 38 -36 76 -69 l69
-60 41 40 c23 22 74 56 114 76 183 90 299 17 415 -261 62 -149 66 -111 -53
-415 -166 -426 -347 -890 -347 -893 0 -1 52 -2 116 -2 l115 0 40 115 c22 63
44 126 49 140 4 14 29 84 55 155 50 138 134 380 140 405 19 71 43 132 48 120
2 -8 32 -98 65 -200 33 -102 103 -309 157 -460 l98 -275 114 0 c77 0 113 3
113 11 0 9 -169 466 -236 639 -8 22 -62 164 -119 315 -173 461 -210 547 -281
647 -24 35 -44 67 -44 72 0 17 68 75 120 101 63 32 144 56 198 59 9 1 11 21 6
84 -4 45 -8 89 -9 97 -3 23 -61 20 -156 -7z"/>
</g>
</svg>
